<svg width="40" height="40" viewBox="0 0 40 40" fill="none" xmlns="http://www.w3.org/2000/svg">
<path fill-rule="evenodd" clip-rule="evenodd" d="M27.3738 15.7071C27.7643 15.3166 27.7643 14.6834 27.3738 14.2929C26.9833 13.9024 26.3501 13.9024 25.9596 14.2929L18.3334 21.9191L14.8738 18.4596C14.4833 18.069 13.8501 18.069 13.4596 18.4596C13.0691 18.8501 13.0691 19.4832 13.4596 19.8738L17.6262 24.0404C17.6751 24.0893 17.7277 24.132 17.7831 24.1686C18.1713 24.4249 18.6988 24.3821 19.0405 24.0404C19.0407 24.0402 19.0409 24.04 19.041 24.0399L27.3738 15.7071Z" fill="#212135"/>
<path d="M1 20C1 24.0947 1.22071 27.3168 1.78509 29.8563C2.34695 32.3845 3.23603 34.1743 4.53086 35.4691C5.82569 36.764 7.61553 37.6531 10.1437 38.2149C12.6832 38.7793 15.9053 39 20 39C24.0947 39 27.3168 38.7793 29.8563 38.2149C32.3845 37.6531 34.1743 36.764 35.4691 35.4691C36.764 34.1743 37.6531 32.3845 38.2149 29.8563C38.7793 27.3168 39 24.0947 39 20C39 15.9053 38.7793 12.6832 38.2149 10.1437C37.6531 7.61553 36.764 5.82569 35.4691 4.53086C34.1743 3.23603 32.3845 2.34695 29.8563 1.78509C27.3168 1.22071 24.0947 1 20 1C15.9053 1 12.6832 1.22071 10.1437 1.78509C7.61553 2.34695 5.82569 3.23603 4.53086 4.53086C3.23603 5.82569 2.34695 7.61553 1.78509 10.1437C1.22071 12.6832 1 15.9053 1 20Z" stroke="#212135" stroke-width="2" stroke-linecap="round" stroke-linejoin="round"/>
</svg>
