<svg width="14" height="13" viewBox="0 0 14 13" fill="none" xmlns="http://www.w3.org/2000/svg">
<path d="M5.88 11.715C5.97298 11.6222 6.04673 11.5119 6.09706 11.3905C6.14738 11.2691 6.17329 11.1389 6.17329 11.0075C6.17329 10.8761 6.14738 10.746 6.09706 10.6246C6.04673 10.5032 5.97298 10.3929 5.88 10.3L2.588 7.00703L13 7.00003C13.2652 7.00003 13.5196 6.89467 13.7071 6.70713C13.8946 6.5196 14 6.26524 14 6.00003C14 5.73481 13.8946 5.48046 13.7071 5.29292C13.5196 5.10538 13.2652 5.00003 13 5.00003L2.586 5.00703L5.88 1.71503C6.06764 1.52752 6.17311 1.27315 6.1732 1.00788C6.1733 0.74261 6.06801 0.488167 5.8805 0.300527C5.69299 0.112886 5.43862 0.00741805 5.17335 0.00732428C4.90808 0.00723051 4.65364 0.112519 4.466 0.300027L0.88 3.88603C0.601371 4.16461 0.380347 4.49535 0.229551 4.85936C0.0787549 5.22337 0.00114059 5.61352 0.00114059 6.00753C0.00114059 6.40153 0.0787549 6.79168 0.229551 7.15569C0.380347 7.5197 0.601371 7.85044 0.88 8.12903L4.466 11.715C4.65353 11.9025 4.90784 12.0078 5.173 12.0078C5.43816 12.0078 5.69247 11.9025 5.88 11.715Z" fill="black"/>
</svg>
