<svg width="24" height="24" viewBox="0 0 24 24" fill="none" xmlns="http://www.w3.org/2000/svg">
<path d="M13.12 6.28497C13.027 6.37785 12.9533 6.48813 12.9029 6.60953C12.8526 6.73093 12.8267 6.86106 12.8267 6.99247C12.8267 7.12389 12.8526 7.25402 12.9029 7.37541C12.9533 7.49681 13.027 7.6071 13.12 7.69997L16.412 10.993L6 11C5.73478 11 5.48043 11.1053 5.29289 11.2929C5.10536 11.4804 5 11.7348 5 12C5 12.2652 5.10536 12.5195 5.29289 12.7071C5.48043 12.8946 5.73478 13 6 13L16.414 12.993L13.12 16.285C12.9324 16.4725 12.8269 16.7268 12.8268 16.9921C12.8267 17.2574 12.932 17.5118 13.1195 17.6995C13.307 17.8871 13.5614 17.9926 13.8266 17.9927C14.0919 17.9928 14.3464 17.8875 14.534 17.7L18.12 14.114C18.3986 13.8354 18.6197 13.5047 18.7704 13.1406C18.9212 12.7766 18.9989 12.3865 18.9989 11.9925C18.9989 11.5985 18.9212 11.2083 18.7704 10.8443C18.6197 10.4803 18.3986 10.1496 18.12 9.87097L14.534 6.28497C14.3465 6.0975 14.0922 5.99219 13.827 5.99219C13.5618 5.99219 13.3075 6.0975 13.12 6.28497Z" fill="white"/>
</svg>
