<svg width="40" height="40" viewBox="0 0 40 40" fill="none" xmlns="http://www.w3.org/2000/svg">
<path d="M38.8996 20.3705C38.9618 20.0916 38.9777 20.0152 38.9886 19.9136C38.9993 19.8133 39.0001 19.7231 38.9984 19.4024C38.9546 11.3979 37.9921 6.96661 35.3718 4.43514C34.0695 3.17702 32.278 2.31155 29.7626 1.76448C27.2372 1.21524 24.0439 0.999999 20 0.999998C15.9561 0.999998 12.7628 1.21523 10.2374 1.76448C7.72199 2.31154 5.93053 3.17702 4.62824 4.43514C2.00789 6.96661 1.04544 11.3979 1.00161 19.4024C0.999857 19.7231 1.00067 19.8133 1.01144 19.9136C1.02234 20.0152 1.03818 20.0915 1.10037 20.3705C3.99317 33.3449 15.4189 37.6697 19.1201 38.7422C19.6083 38.8837 19.7304 38.9149 20 38.9149C20.2696 38.9149 20.3917 38.8837 20.8799 38.7422C24.5811 37.6697 36.0068 33.3449 38.8996 20.3705Z" stroke="#212135" stroke-width="2" stroke-linecap="round" stroke-linejoin="round"/>
<path fill-rule="evenodd" clip-rule="evenodd" d="M27.3738 15.7071C27.7644 15.3166 27.7644 14.6834 27.3738 14.2929C26.9833 13.9024 26.3501 13.9024 25.9596 14.2929L18.3334 21.9191L15.7072 19.2929C15.3166 18.9024 14.6835 18.9024 14.293 19.2929C13.9024 19.6834 13.9024 20.3166 14.293 20.7071L17.6263 24.0404C17.6751 24.0893 17.7277 24.132 17.7832 24.1686C18.1713 24.4249 18.6988 24.3821 19.0405 24.0404C19.0407 24.0402 19.0409 24.04 19.0411 24.0399L27.3738 15.7071Z" fill="#212135"/>
</svg>
