<svg width="40" height="40" viewBox="0 0 40 40" fill="none" xmlns="http://www.w3.org/2000/svg">
<path d="M39 20C39 17.8919 38.9416 16.0114 38.8069 14.3333H38.8068H38.7913H38.7756H38.7598H38.7439H38.7279H38.7117H38.6955H38.6791H38.6626H38.6461H38.6294H38.6126H38.5957H38.5787H38.5615H38.5443H38.527H38.5095H38.492H38.4743H38.4566H38.4387H38.4207H38.4026H38.3845H38.3662H38.3478H38.3293H38.3107H38.2921H38.2733H38.2544H38.2354H38.2163H38.1971H38.1779H38.1585H38.139H38.1194H38.0998H38.08H38.0601H38.0402H38.0201H38H37.9797H37.9594H37.939H37.9185H37.8979H37.8772H37.8564H37.8355H37.8145H37.7934H37.7723H37.7511H37.7297H37.7083H37.6868H37.6652H37.6436H37.6218H37.6H37.578H37.556H37.5339H37.5117H37.4895H37.4671H37.4447H37.4222H37.3996H37.3769H37.3542H37.3313H37.3084H37.2854H37.2624H37.2392H37.216H37.1927H37.1693H37.1458H37.1223H37.0987H37.075H37.0513H37.0274H37.0035H36.9796H36.9555H36.9314H36.9072H36.8829H36.8586H36.8342H36.8097H36.7852H36.7606H36.7359H36.7111H36.6863H36.6614H36.6365H36.6115H36.5864H36.5613H36.536H36.5108H36.4854H36.46H36.4346H36.409H36.3835H36.3578H36.3321H36.3063H36.2805H36.2546H36.2286H36.2026H36.1766H36.1504H36.1243H36.098H36.0717H36.0454H36.019H35.9925H35.966H35.9394H35.9128H35.8861H35.8594H35.8326H35.8058H35.7789H35.7519H35.725H35.6979H35.6708H35.6437H35.6165H35.5893H35.562H35.5347H35.5073H35.4799H35.4524H35.4249H35.3973H35.3697H35.3421H35.3144H35.2867H35.2589H35.2311H35.2032H35.1753H35.1474H35.1194H35.0914H35.0633H35.0352H35.0071H34.9789H34.9507H34.9225H34.8942H34.8658H34.8375H34.8091H34.7807H34.7522H34.7237H34.6952H34.6666H34.638H34.6094H34.5807H34.552H34.5233H34.4946H34.4658H34.437H34.4081H34.3793H34.3504H34.3214H34.2925H34.2635H34.2345H34.2055H34.1764H34.1473H34.1182H34.0891H34.06H34.0308H34.0016H33.9724H33.9431H33.9139H33.8846H33.8553H33.826H33.7966H33.7673H33.7379H33.7085H33.6791H33.6497H33.6202H33.5908H33.5613H33.5318H33.5023H33.4728H33.4432H33.4137H33.3841H33.3545H33.325H33.2954H33.2658H33.2361H33.2065H33.1769H33.1472H33.1176H33.0879H33.0582H33.0286H32.9989H32.9692H32.9395H32.9098H32.8801H32.8504H32.8207H32.7909H32.7612H32.7315H32.7018H32.672H32.6423H32.6126H32.5828H32.5531H32.5234H32.4936H32.4639H32.4342H32.4045H32.3747H32.345H32.3153H32.2856H32.2559H32.2262H32.1965H32.1668H32.1371H32.1074H32.0778H32.0481H32.0185H31.9888H31.9592H31.9296H31.9H31.8703H31.8408H31.8112H31.7816H31.7521H31.7225H31.693H31.6635H31.634H31.6045H31.575H31.5455H31.5161H31.4867H31.4573H31.4279H31.3985H31.3692H31.3398H31.3105H31.2812H31.252H31.2227H31.1935H31.1643H31.1351H31.1059H31.0768H31.0476H31.0186H30.9895H30.9604H30.9314H30.9024H30.8735H30.8445H30.8156H30.7867H30.7579H30.729H30.7002H30.6715H30.6427H30.614H30.5853H30.5567H30.5281H30.4995H30.4709H30.4424H30.4139H30.3855H30.357H30.3287H30.3003H30.272H30.2437H30.2155H30.1873H30.1591H30.131H30.1029H30.0749H30.0469H30.0189H29.991H29.9631H29.9352H29.9074H29.8797H29.852H29.8243H29.7967H29.7691H29.7415H29.714H29.6866H29.6592H29.6318H29.6045H29.5773H29.55H29.5229H29.4958H29.4687H29.4417H29.4147H29.3878H29.3609H29.3341H29.3073H29.2806H29.254H29.2274H29.2008H29.1743H29.1479H29.1215H29.0951H29.0689H29.0426H29.0165H28.9904H28.9643H28.9383H28.9124H28.8865H28.8607H28.835H28.8093H28.7837H28.7581H28.7326H28.7071H28.6818H28.6565H28.6312H28.606H28.5809H28.5558H28.5308H28.5059H28.4811H28.4563H28.4315H28.4069H28.3823H28.3578H28.3333C24.7991 14.3333 22.6667 17.1353 22.6667 20C22.6667 22.8647 24.7991 25.6667 28.3333 25.6667L35.5893 25.6667H38.527H38.8069C38.9416 23.9886 39 22.1081 39 20ZM38.5966 27.6667H38.527H35.5893L28.3333 27.6667C23.5343 27.6667 20.6667 23.8019 20.6667 20C20.6667 16.1981 23.5343 12.3333 28.3333 12.3333H28.3578H28.3823H28.4069H28.4315H28.4563H28.4811H28.5059H28.5308H28.5558H28.5809H28.606H28.6312H28.6565H28.6818H28.7071H28.7326H28.7581H28.7837H28.8093H28.835H28.8607H28.8865H28.9124H28.9383H28.9643H28.9904H29.0165H29.0426H29.0689H29.0951H29.1215H29.1479H29.1743H29.2008H29.2274H29.254H29.2806H29.3073H29.3341H29.3609H29.3878H29.4147H29.4417H29.4687H29.4958H29.5229H29.55H29.5773H29.6045H29.6318H29.6592H29.6866H29.714H29.7415H29.7691H29.7967H29.8243H29.852H29.8797H29.9074H29.9352H29.9631H29.991H30.0189H30.0469H30.0749H30.1029H30.131H30.1591H30.1873H30.2155H30.2437H30.272H30.3003H30.3287H30.357H30.3855H30.4139H30.4424H30.4709H30.4995H30.5281H30.5567H30.5853H30.614H30.6427H30.6715H30.7002H30.729H30.7579H30.7867H30.8156H30.8445H30.8735H30.9024H30.9314H30.9604H30.9895H31.0186H31.0476H31.0768H31.1059H31.1351H31.1643H31.1935H31.2227H31.252H31.2812H31.3105H31.3398H31.3692H31.3985H31.4279H31.4573H31.4867H31.5161H31.5455H31.575H31.6045H31.634H31.6635H31.693H31.7225H31.7521H31.7816H31.8112H31.8408H31.8703H31.9H31.9296H31.9592H31.9888H32.0185H32.0481H32.0778H32.1074H32.1371H32.1668H32.1965H32.2262H32.2559H32.2856H32.3153H32.345H32.3747H32.4045H32.4342H32.4639H32.4936H32.5234H32.5531H32.5828H32.6126H32.6423H32.672H32.7018H32.7315H32.7612H32.7909H32.8207H32.8504H32.8801H32.9098H32.9395H32.9692H32.9989H33.0286H33.0582H33.0879H33.1176H33.1472H33.1769H33.2065H33.2361H33.2658H33.2954H33.325H33.3545H33.3841H33.4137H33.4432H33.4728H33.5023H33.5318H33.5613H33.5908H33.6202H33.6497H33.6791H33.7085H33.7379H33.7673H33.7966H33.826H33.8553H33.8846H33.9139H33.9431H33.9724H34.0016H34.0308H34.06H34.0891H34.1182H34.1473H34.1764H34.2055H34.2345H34.2635H34.2925H34.3214H34.3504H34.3793H34.4081H34.437H34.4658H34.4946H34.5233H34.552H34.5807H34.6094H34.638H34.6666H34.6952H34.7237H34.7522H34.7807H34.8091H34.8375H34.8658H34.8942H34.9225H34.9507H34.9789H35.0071H35.0352H35.0633H35.0914H35.1194H35.1474H35.1753H35.2032H35.2311H35.2589H35.2867H35.3144H35.3421H35.3697H35.3973H35.4249H35.4524H35.4799H35.5073H35.5347H35.562H35.5893H35.6165H35.6437H35.6708H35.6979H35.725H35.7519H35.7789H35.8058H35.8326H35.8594H35.8861H35.9128H35.9394H35.966H35.9925H36.019H36.0454H36.0717H36.098H36.1243H36.1504H36.1766H36.2026H36.2286H36.2546H36.2805H36.3063H36.3321H36.3578H36.3835H36.409H36.4346H36.46H36.4854H36.5108H36.536H36.5613H36.5864H36.6115H36.6365H36.6614H36.6863H36.7111H36.7359H36.7606H36.7852H36.8097H36.8342H36.8586H36.8829H36.9072H36.9314H36.9555H36.9796H37.0035H37.0274H37.0513H37.075H37.0987H37.1223H37.1458H37.1693H37.1927H37.216H37.2392H37.2624H37.2854H37.3084H37.3313H37.3542H37.3769H37.3996H37.4222H37.4447H37.4671H37.4895H37.5117H37.5339H37.556H37.578H37.6H37.6218H37.6436H37.6652H37.6868H37.7083H37.7297H37.7511H37.7723H37.7934H37.8145H37.8355H37.8564H37.8772H37.8979H37.9185H37.939H37.9594H37.9797H38H38.0201H38.0402H38.0601H38.08H38.0998H38.1194H38.139H38.1585H38.1779H38.1971H38.2163H38.2354H38.2544H38.2733H38.2921H38.3107H38.3293H38.3478H38.3662H38.3845H38.4026H38.4207H38.4387H38.4566H38.4743H38.492H38.5095H38.527H38.5443H38.5615H38.5787H38.5957H38.5966C37.983 7.72935 36.6147 5.06794 34.1371 3.45555C31.3639 1.65086 26.9892 1 20 1C15.9053 1 12.6832 1.22071 10.1437 1.78509C7.61553 2.34695 5.82569 3.23603 4.53086 4.53086C3.23603 5.82569 2.34695 7.61553 1.78509 10.1437C1.22071 12.6832 1 15.9053 1 20C1 24.0947 1.22071 27.3168 1.78509 29.8563C2.34695 32.3845 3.23603 34.1743 4.53086 35.4691C5.82569 36.764 7.61553 37.6531 10.1437 38.2149C12.6832 38.7793 15.9053 39 20 39C26.9892 39 31.3639 38.3491 34.1371 36.5445C36.6147 34.9321 37.983 32.2707 38.5966 27.6667ZM28.3333 21C27.781 21 27.3333 20.5523 27.3333 20C27.3333 19.4477 27.781 19 28.3333 19H31.6667C32.219 19 32.6667 19.4477 32.6667 20C32.6667 20.5523 32.219 21 31.6667 21H28.3333Z" stroke="#212135" stroke-width="2" stroke-linecap="round" stroke-linejoin="round"/>
</svg>
